<svg width="122" height="40" viewBox="0 0 122 40" fill="none" xmlns="http://www.w3.org/2000/svg">
<rect x="4" y="2" width="36" height="36" rx="8" fill="#FBC531"/>
<path opacity="0.5" d="M16.25 24.7602L12 10.8502L12.3 10.7702C12.6018 10.7014 12.9105 10.6679 13.22 10.6702C13.4888 10.6666 13.7572 10.6935 14.02 10.7502L16.25 24.7602Z" fill="white"/>
<path opacity="0.75" d="M16.2486 24.7599L13.8086 9.38989C14.0238 9.35794 14.241 9.34123 14.4586 9.33989C15.0777 9.33703 15.6896 9.47375 16.2486 9.73989V24.7599Z" fill="white"/>
<path d="M30.7417 23.71C30.7417 23.71 30.7417 23.76 30.7417 23.78V23.87C30.7429 24.0678 30.6775 24.2602 30.5559 24.4162C30.4344 24.5723 30.2638 24.6828 30.0717 24.73H29.7817H29.5917C28.969 24.7316 28.3526 24.6046 27.7813 24.3568C27.21 24.109 26.6961 23.7458 26.2717 23.29C26.1153 23.0019 25.9164 22.739 25.6817 22.51C25.3182 22.158 24.8738 21.9007 24.3875 21.7607C23.9013 21.6206 23.3881 21.6022 22.893 21.7069C22.3979 21.8116 21.9362 22.0363 21.5482 22.3612C21.1603 22.6861 20.8581 23.1013 20.6682 23.5703C20.4783 24.0393 20.4065 24.5478 20.4591 25.0511C20.5117 25.5544 20.6871 26.037 20.9698 26.4567C21.2526 26.8763 21.6341 27.2201 22.0808 27.4578C22.5275 27.6955 23.0257 27.8199 23.5317 27.82C24.3265 27.8296 25.0952 27.5364 25.6817 27C25.9143 26.7655 26.1129 26.4996 26.2717 26.21C26.6975 25.7561 27.2118 25.3942 27.7828 25.1466C28.3537 24.8989 28.9694 24.7708 29.5917 24.77H29.7817H30.0817C30.2738 24.8172 30.4444 24.9277 30.5659 25.0838C30.6875 25.2398 30.7529 25.4322 30.7517 25.63V25.79V25.72C30.7517 25.72 30.7517 25.72 30.7517 25.78C30.4968 27.6051 29.5592 29.2655 28.1281 30.4265C26.697 31.5875 24.8789 32.1625 23.0405 32.0356C21.2021 31.9088 19.4802 31.0894 18.2221 29.7429C16.9641 28.3963 16.2635 26.6228 16.2617 24.78V24.72V8C17.3174 8.00268 18.3327 8.40564 19.1029 9.12759C19.8731 9.84953 20.3408 10.8367 20.4117 11.89V18.23C21.3901 17.7672 22.4594 17.5281 23.5417 17.53C24.2873 17.5315 25.0285 17.6427 25.7417 17.86C27.044 18.2765 28.2032 19.0504 29.0872 20.0935C29.9712 21.1366 30.5445 22.407 30.7417 23.76C30.7417 23.76 30.7417 23.81 30.7417 23.83" fill="white"/>
<path d="M50.2574 15.5476C49.961 15.5498 49.6674 15.4912 49.3946 15.3755C49.1217 15.2598 48.8755 15.0895 48.671 14.875C48.4563 14.67 48.2859 14.4232 48.1705 14.1497C48.0551 13.8763 47.9971 13.5821 48.0001 13.2853C47.9987 12.9873 48.0574 12.6921 48.1727 12.4174C48.2879 12.1426 48.4574 11.8939 48.671 11.6861C48.8738 11.4685 49.1194 11.2952 49.3924 11.1771C49.6654 11.0591 49.9599 10.9988 50.2574 11.0002C50.5596 10.9966 50.8593 11.0557 51.1376 11.1738C51.4158 11.2918 51.6666 11.4663 51.874 11.6861C52.0883 11.8935 52.2585 12.1421 52.3744 12.4169C52.4903 12.6917 52.5496 12.987 52.5487 13.2853C52.5512 13.5814 52.4929 13.8749 52.3775 14.1477C52.2621 14.4205 52.0921 14.6667 51.8778 14.8712C51.6685 15.089 51.4167 15.2615 51.1379 15.3779C50.8592 15.4942 50.5594 15.552 50.2574 15.5476Z" fill="#FBC531"/>
<path d="M52.1179 16.8872H48.4297V31.8598H52.1179V16.8872Z" fill="#FBC531"/>
<path d="M55.6606 32.1461V11.0002H59.3469V32.1461C59.3469 34.2417 58.8371 35.7702 57.8174 36.7315C56.7978 37.6927 55.231 38.1077 53.1172 37.9763V34.4331C53.9928 34.4899 54.6359 34.3371 55.0466 33.9745C55.4572 33.612 55.6619 33.0025 55.6606 32.1461Z" fill="#FBC531"/>
<path d="M74.8951 30.075C74.1952 30.7853 73.3577 31.3454 72.4338 31.7211C71.51 32.0967 70.5192 32.28 69.522 32.2597C68.5281 32.2708 67.542 32.0834 66.6215 31.7082C65.7011 31.3331 64.8649 30.7779 64.162 30.0752C63.4592 29.3725 62.9038 28.5366 62.5286 27.6163C62.1534 26.6961 61.9659 25.7102 61.977 24.7165C61.9659 23.7228 62.1534 22.737 62.5286 21.8167C62.9038 20.8965 63.4592 20.0605 64.162 19.3578C64.8649 18.6551 65.7011 18.0999 66.6215 17.7248C67.542 17.3497 68.5281 17.1622 69.522 17.1734C70.5179 17.1615 71.506 17.3483 72.4288 17.7227C73.3516 18.0971 74.1904 18.6517 74.8963 19.3541C75.6022 20.0564 76.1609 20.8924 76.5398 21.8131C76.9187 22.7339 77.1102 23.7209 77.1031 24.7165C77.1223 25.7133 76.9362 26.7034 76.5564 27.6253C76.1765 28.5471 75.611 29.381 74.8951 30.075ZM66.7626 27.5454C67.1206 27.9111 67.5504 28.1988 68.025 28.3905C68.4995 28.5822 69.0085 28.6738 69.5202 28.6596C70.0339 28.673 70.545 28.581 71.0219 28.3894C71.4987 28.1978 71.9313 27.9106 72.2929 27.5454C72.6618 27.1748 72.951 26.7327 73.1427 26.2462C73.3343 25.7597 73.4244 25.2391 73.4073 24.7165C73.4244 24.1939 73.3343 23.6734 73.1427 23.1869C72.951 22.7004 72.6618 22.2582 72.2929 21.8876C71.9313 21.5225 71.4987 21.2353 71.0219 21.0437C70.545 20.852 70.0339 20.7601 69.5202 20.7735C69.0085 20.7592 68.4995 20.8509 68.025 21.0426C67.5504 21.2343 67.1206 21.522 66.7626 21.8876C66.3977 22.2605 66.1122 22.7034 65.9233 23.1896C65.7344 23.6758 65.6459 24.1952 65.6633 24.7165C65.6459 25.2378 65.7344 25.7573 65.9233 26.2435C66.1122 26.7297 66.3977 27.1726 66.7626 27.5454Z" fill="#FBC531"/>
<path d="M97.6242 17.5731H101.31V31.8598H97.6242V30.1735C96.5173 31.563 94.9639 32.2577 92.9637 32.2577C91.0584 32.2577 89.4247 31.5295 88.0626 30.0731C86.7006 28.6166 86.0195 26.8311 86.0195 24.7165C86.0195 22.6019 86.7006 20.8158 88.0626 19.358C89.4247 17.9003 91.0584 17.1721 92.9637 17.1733C94.9651 17.1733 96.5186 17.8681 97.6242 19.2576V17.5731ZM90.8202 27.6155C91.1881 27.9896 91.6293 28.2837 92.1163 28.4794C92.6032 28.675 93.1253 28.768 93.6498 28.7524C94.1762 28.7671 94.7001 28.6738 95.189 28.4782C95.678 28.2827 96.1216 27.9891 96.4927 27.6155C97.2508 26.8576 97.6299 25.8906 97.6299 24.7146C97.6299 23.5386 97.2508 22.5716 96.4927 21.8137C96.1216 21.4402 95.6779 21.1466 95.189 20.9511C94.7 20.7556 94.1762 20.6622 93.6498 20.6768C93.1253 20.6612 92.6032 20.7542 92.1163 20.9498C91.6293 21.1454 91.1881 21.4395 90.8202 21.8137C90.0735 22.5627 89.7001 23.5304 89.7001 24.7165C89.7001 25.9026 90.0735 26.8696 90.8202 27.6174V27.6155Z" fill="#FBC531"/>
<path d="M112.599 17.1733C114.161 17.1733 115.452 17.6969 116.471 18.7441C117.491 19.7913 118.001 21.2389 118.001 23.087V31.8598H114.314V23.5455C114.314 22.5931 114.057 21.8642 113.543 21.3589C113.029 20.8536 112.343 20.601 111.485 20.601C110.532 20.601 109.77 20.8966 109.197 21.4878C108.625 22.0789 108.339 22.9632 108.341 24.1405V31.856H104.652V17.5731H108.341V19.1723C109.235 17.8409 110.655 17.1746 112.599 17.1733Z" fill="#FBC531"/>
<path d="M83.03 26.4617V11.0002H79.3438V26.4617C79.3438 28.5573 79.8536 30.0858 80.8732 31.0471C81.8929 32.0084 83.4602 32.4233 85.5753 32.292V28.7487C84.6985 28.8056 84.0554 28.6527 83.646 28.2902C83.2366 27.9276 83.0313 27.3182 83.03 26.4617Z" fill="#FBC531"/>
</svg>
