<svg width="168" height="65" viewBox="0 0 168 65" fill="none" xmlns="http://www.w3.org/2000/svg">
<g clip-path="url(#clip0_5043_17947)">
<path d="M5.41786 10.9483C4.70661 10.9533 4.00185 10.8123 3.34705 10.5338C2.69224 10.2552 2.10126 9.84518 1.61053 9.32885C1.09515 8.83544 0.686291 8.24115 0.409301 7.58281C0.132312 6.92446 -0.00690964 6.21608 0.00026375 5.50156C-0.00310503 4.78423 0.137754 4.07357 0.414425 3.41206C0.691097 2.75055 1.0979 2.15176 1.61053 1.65147C2.09714 1.1276 2.68662 0.710433 3.34188 0.426232C3.99713 0.142031 4.70396 -0.00305021 5.41786 0.000121902C6.14329 -0.00845728 6.86262 0.133856 7.53045 0.418079C8.19828 0.702303 8.80011 1.12227 9.29797 1.65147C9.81224 2.15099 10.2207 2.74943 10.499 3.41098C10.7772 4.07253 10.9195 4.78358 10.9173 5.50156C10.9233 6.21454 10.7834 6.92118 10.5065 7.57787C10.2295 8.23456 9.82132 8.82737 9.30706 9.31973C8.80484 9.84417 8.20039 10.2594 7.53132 10.5395C6.86224 10.8197 6.14284 10.9588 5.41786 10.9483Z" fill="white"/>
<path d="M9.87926 14.1733H1.02734V50.2201H9.87926V14.1733Z" fill="white"/>
<path d="M18.3857 50.9088V0H27.2331V50.9088C27.2331 55.9541 26.0095 59.6339 23.5622 61.9482C21.115 64.2625 17.3547 65.2615 12.2812 64.9453V56.4148C14.3828 56.5517 15.9263 56.1837 16.9119 55.3109C17.8975 54.4381 18.3887 52.9707 18.3857 50.9088Z" fill="white"/>
<path d="M64.5525 45.9229C62.8726 47.633 60.8626 48.9815 58.6452 49.8858C56.4279 50.7902 54.0499 51.2314 51.6567 51.1826C49.2712 51.2094 46.9044 50.7581 44.6952 49.855C42.486 48.9519 40.4791 47.6152 38.7922 45.9235C37.1052 44.2318 35.7724 42.2191 34.8718 40.0036C33.9713 37.7882 33.5212 35.4146 33.548 33.0223C33.5212 30.63 33.9713 28.2565 34.8718 26.041C35.7724 23.8256 37.1052 21.8129 38.7922 20.1212C40.4791 18.4295 42.486 17.0928 44.6952 16.1897C46.9044 15.2866 49.2712 14.8352 51.6567 14.8621C54.0467 14.8336 56.4184 15.2831 58.6332 16.1846C60.8479 17.086 62.8612 18.4212 64.5554 20.1121C66.2495 21.803 67.5905 23.8157 68.4999 26.0324C69.4093 28.2491 69.8689 30.6254 69.8518 33.0223C69.898 35.4222 69.4514 37.8059 68.5397 40.0252C67.628 42.2445 66.2708 44.252 64.5525 45.9229ZM45.0337 39.833C45.8931 40.7132 46.9246 41.4058 48.0635 41.8674C49.2025 42.329 50.4242 42.5496 51.6521 42.5153C52.8852 42.5475 54.1119 42.3261 55.2564 41.8648C56.4009 41.4035 57.4391 40.712 58.307 39.833C59.1924 38.9407 59.8865 37.8762 60.3465 36.705C60.8065 35.5337 61.0226 34.2805 60.9817 33.0223C61.0226 31.7642 60.8065 30.511 60.3465 29.3397C59.8865 28.1684 59.1924 27.1039 58.307 26.2117C57.4391 25.3326 56.4009 24.6412 55.2564 24.1799C54.1119 23.7185 52.8852 23.4972 51.6521 23.5294C50.4242 23.4951 49.2025 23.7157 48.0635 24.1773C46.9246 24.6388 45.8931 25.3315 45.0337 26.2117C44.158 27.1094 43.4728 28.1757 43.0194 29.3462C42.5659 30.5167 42.3537 31.7673 42.3954 33.0223C42.3537 34.2774 42.5659 35.5279 43.0194 36.6985C43.4728 37.869 44.158 38.9353 45.0337 39.833Z" fill="white"/>
<path d="M119.09 15.8248H127.938V50.2202H119.09V46.1603C116.434 49.5056 112.705 51.1782 107.905 51.1782C103.332 51.1782 99.4109 49.425 96.1419 45.9185C92.8728 42.4121 91.2383 38.1134 91.2383 33.0225C91.2383 27.9316 92.8728 23.6315 96.1419 20.122C99.4109 16.6125 103.332 14.8593 107.905 14.8623C112.709 14.8623 116.437 16.5349 119.09 19.8802V15.8248ZM102.76 40.002C103.643 40.9027 104.702 41.6107 105.871 42.0817C107.04 42.5527 108.293 42.7765 109.552 42.739C110.815 42.7743 112.072 42.5497 113.246 42.079C114.419 41.6082 115.484 40.9014 116.375 40.002C118.194 38.1773 119.104 35.8493 119.104 33.018C119.104 30.1867 118.194 27.8587 116.375 26.034C115.484 25.1348 114.419 24.4281 113.246 23.9573C112.072 23.4866 110.815 23.2619 109.552 23.2969C108.293 23.2595 107.04 23.4832 105.871 23.9542C104.702 24.4252 103.643 25.1333 102.76 26.034C100.968 27.8374 100.072 30.1669 100.072 33.0225C100.072 35.8782 100.968 38.2062 102.76 40.0065V40.002Z" fill="white"/>
<path d="M155.038 14.8623C158.786 14.8623 161.884 16.1229 164.331 18.644C166.778 21.1651 168.002 24.6502 168.002 29.0994V50.2202H159.155V30.2034C159.155 27.9104 158.537 26.1556 157.303 24.9392C156.069 23.7227 154.422 23.1145 152.363 23.1145C150.077 23.1145 148.247 23.8261 146.873 25.2493C145.499 26.6726 144.814 28.8014 144.817 31.6358V50.2111H135.965V15.8248H144.817V19.6749C146.964 16.4696 150.371 14.8653 155.038 14.8623Z" fill="white"/>
<path d="M84.0857 37.2237V0H75.2383V37.2237C75.2383 42.2689 76.4619 45.9487 78.9092 48.263C81.3564 50.5774 85.1182 51.5764 90.1947 51.2601V42.7297C88.0901 42.8665 86.5466 42.4985 85.564 41.6257C84.5815 40.7529 84.0887 39.2856 84.0857 37.2237Z" fill="white"/>
</g>
<defs>
<clipPath id="clip0_5043_17947">
<rect width="168" height="65" fill="white"/>
</clipPath>
</defs>
</svg>
